<svg xmlns="http://www.w3.org/2000/svg" width="15" height="16" fill="none"><path fill="#264DE4" d="m14.113.258-1.205 13.499-5.416 1.501-5.401-1.5L.887.259h13.226Z"/><path fill="#2965F1" d="m11.877 12.897 1.03-11.535H7.5v12.749l4.377-1.214Z"/><path fill="#EBEBEB" d="m3.646 6.37.149 1.655H7.5V6.37H3.646ZM7.5 3.018H3.348l.15 1.656H7.5V3.018ZM7.5 12.392V10.67l-.007.002-1.844-.498-.118-1.32H3.869l.232 2.6 3.391.941.008-.002Z"/><path fill="#fff" d="m9.533 8.025-.192 2.147-1.847.499v1.723l3.395-.941.025-.28.389-4.36.04-.444.299-3.351H7.494v1.656h2.333l-.15 1.695H7.494v1.656h2.04Z"/></svg>