<svg xmlns="http://www.w3.org/2000/svg" width="40" height="9" fill="none"><path fill="#fff" d="M3.094 6.423c-.58 0-1.082-.128-1.507-.385a2.613 2.613 0 0 1-.985-1.083C.367 4.489.25 3.943.25 3.315c0-.648.116-1.21.347-1.682.23-.473.555-.838.973-1.095.422-.256.919-.385 1.49-.385.587 0 1.088.136 1.502.407.414.268.728.653.94 1.155.213.503.31 1.102.292 1.799H4.97v-.286c-.015-.77-.181-1.351-.5-1.744-.316-.392-.778-.588-1.386-.588-.638 0-1.128.207-1.469.621-.337.415-.506 1.005-.506 1.771 0 .748.169 1.33.506 1.744.341.41.823.616 1.447.616.425 0 .795-.097 1.11-.292.32-.198.57-.482.754-.852l.754.291A2.694 2.694 0 0 1 4.639 6a2.87 2.87 0 0 1-1.545.423ZM.822 3.513v-.676H5.36v.677H.822ZM6.14 6.259l2.32-3.003L6.19.318h.967l1.777 2.316 1.76-2.316h.968L9.39 3.255l2.327 3.003h-.974l-1.81-2.381-1.82 2.381H6.14Zm9.128.165c-.546 0-1.008-.137-1.386-.412a2.586 2.586 0 0 1-.858-1.128 4.203 4.203 0 0 1-.291-1.6c0-.602.097-1.137.291-1.606.198-.473.488-.845.87-1.117.38-.271.85-.407 1.407-.407.543 0 1.008.138 1.397.413.389.275.686.649.891 1.122.21.473.314 1.004.314 1.595a3.92 3.92 0 0 1-.314 1.6c-.209.473-.51.85-.902 1.128-.392.275-.865.412-1.419.412Zm-2.673 2.475V.318h.726V4.79h.088v4.108h-.814Zm2.59-3.228c.415 0 .76-.105 1.035-.314.275-.209.48-.493.616-.852.139-.363.209-.77.209-1.221 0-.448-.068-.85-.204-1.21a1.855 1.855 0 0 0-.621-.853c-.275-.209-.626-.313-1.05-.313-.415 0-.76.1-1.035.302a1.815 1.815 0 0 0-.61.842 3.443 3.443 0 0 0-.204 1.232c0 .458.068.869.204 1.232.135.36.34.641.616.847.275.205.623.308 1.045.308Zm3.925.588V.318h.726v1.43l-.143-.187c.066-.176.152-.337.259-.484.106-.15.222-.273.346-.368.154-.136.334-.239.54-.308.205-.074.412-.116.62-.127.21-.014.4 0 .573.044v.76a1.961 1.961 0 0 0-.71-.04c-.256.03-.493.133-.71.309-.197.154-.346.339-.445.555-.099.213-.165.44-.198.682-.033.239-.05.475-.05.71v2.964h-.808Zm6.37.165c-.58 0-1.081-.128-1.507-.385a2.612 2.612 0 0 1-.984-1.083c-.235-.466-.352-1.012-.352-1.64 0-.648.115-1.21.346-1.682.231-.473.556-.838.974-1.095.421-.256.918-.385 1.49-.385.587 0 1.087.136 1.502.407.414.268.728.653.94 1.155.213.503.31 1.102.292 1.799h-.825v-.286c-.015-.77-.182-1.351-.5-1.744-.316-.392-.778-.588-1.387-.588-.638 0-1.127.207-1.468.621-.338.415-.506 1.005-.506 1.771 0 .748.168 1.33.506 1.744.34.41.823.616 1.446.616.426 0 .796-.097 1.111-.292a2.04 2.04 0 0 0 .754-.852l.753.291A2.695 2.695 0 0 1 27.025 6a2.87 2.87 0 0 1-1.545.423Zm-2.271-2.91v-.676h4.537v.677H23.21Zm8.409 2.905c-.697 0-1.27-.15-1.722-.451a1.88 1.88 0 0 1-.825-1.254l.825-.138c.088.338.288.607.6.809.315.198.704.297 1.166.297.45 0 .806-.094 1.067-.28.26-.191.39-.45.39-.776a.729.729 0 0 0-.126-.446c-.08-.117-.248-.225-.5-.324-.254-.1-.631-.217-1.134-.352-.539-.147-.96-.294-1.265-.44-.304-.147-.52-.316-.649-.506a1.26 1.26 0 0 1-.192-.71c0-.337.095-.632.286-.885.19-.257.454-.455.792-.594.337-.143.73-.215 1.177-.215.447 0 .847.074 1.199.22.355.143.642.345.858.605.216.26.345.563.385.908l-.825.148a1.188 1.188 0 0 0-.523-.825c-.29-.205-.658-.311-1.105-.319-.422-.01-.765.07-1.029.242-.264.169-.396.394-.396.677 0 .157.048.293.143.407.096.11.268.214.517.313.253.1.613.207 1.078.325.547.14.976.286 1.287.44.312.154.534.335.666.544.132.21.198.468.198.776 0 .56-.21 1.003-.627 1.325-.415.32-.987.479-1.716.479Zm5.78 0c-.698 0-1.271-.15-1.722-.451a1.88 1.88 0 0 1-.825-1.254l.825-.138c.088.338.288.607.6.809.314.198.703.297 1.165.297.451 0 .807-.094 1.067-.28.26-.191.39-.45.39-.776a.729.729 0 0 0-.126-.446c-.08-.117-.247-.225-.5-.324-.253-.1-.631-.217-1.133-.352-.54-.147-.961-.294-1.265-.44-.305-.147-.521-.316-.65-.506a1.26 1.26 0 0 1-.192-.71c0-.337.096-.632.286-.885.19-.257.455-.455.792-.594.337-.143.73-.215 1.177-.215.447 0 .847.074 1.2.22.355.143.64.345.857.605.216.26.345.563.385.908l-.825.148a1.188 1.188 0 0 0-.522-.825c-.29-.205-.658-.311-1.106-.319-.422-.01-.764.07-1.028.242-.264.169-.396.394-.396.677 0 .157.047.293.143.407.095.11.267.214.517.313.253.1.612.207 1.078.325.546.14.975.286 1.287.44.311.154.533.335.665.544.132.21.198.468.198.776 0 .56-.209 1.003-.627 1.325-.414.32-.986.479-1.716.479Z"/></svg>