<svg xmlns="http://www.w3.org/2000/svg" width="11" height="16" fill="none"><g clip-path="url(#a)"><path fill="#0ACF83" d="M3.37 15.775a2.5 2.5 0 0 0 2.5-2.5v-2.5h-2.5a2.5 2.5 0 0 0 0 5Z"/><path fill="#A259FF" d="M.87 8.275a2.5 2.5 0 0 1 2.5-2.5h2.5v5h-2.5a2.5 2.5 0 0 1-2.5-2.5Z"/><path fill="#F24E1E" d="M.871 3.275a2.5 2.5 0 0 1 2.5-2.5h2.5v5h-2.5a2.5 2.5 0 0 1-2.5-2.5Z"/><path fill="#FF7262" d="M5.87.775h2.5a2.5 2.5 0 0 1 0 5h-2.5v-5Z"/><path fill="#1ABCFE" d="M10.87 8.275a2.5 2.5 0 1 1-5-.002 2.5 2.5 0 0 1 5 .002Z"/></g><defs><clipPath id="a"><path fill="#fff" d="M.87.775h10.002v15H.87z"/></clipPath></defs></svg>