<svg width="16" height="16" viewBox="0 0 16 16" fill="none" xmlns="http://www.w3.org/2000/svg">
<path fill-rule="evenodd" clip-rule="evenodd" d="M7.87086 0.516479C3.62229 0.516479 0.181152 3.95762 0.181152 8.20618C0.181152 11.6089 2.38233 14.4829 5.43899 15.5018C5.82347 15.5691 5.96765 15.3384 5.96765 15.1365C5.96765 14.9539 5.95804 14.3483 5.95804 13.7043C4.026 14.06 3.52617 13.2333 3.37238 12.8008C3.28587 12.5797 2.911 11.8972 2.58418 11.7146C2.31505 11.5704 1.93056 11.2148 2.57457 11.2052C3.18014 11.1956 3.61268 11.7627 3.75686 11.9934C4.44894 13.1564 5.55433 12.8296 5.99649 12.6278C6.06378 12.1279 6.26563 11.7915 6.48671 11.5993C4.77575 11.407 2.98789 10.7438 2.98789 7.80247C2.98789 6.96622 3.28587 6.27414 3.77609 5.73587C3.69919 5.54362 3.43005 4.75543 3.85299 3.69809C3.85299 3.69809 4.497 3.49624 5.96765 4.48629C6.58283 4.31327 7.23646 4.22676 7.89008 4.22676C8.54371 4.22676 9.19733 4.31327 9.81251 4.48629C11.2832 3.48663 11.9272 3.69809 11.9272 3.69809C12.3501 4.75543 12.081 5.54362 12.0041 5.73587C12.4943 6.27414 12.7923 6.95661 12.7923 7.80247C12.7923 10.7534 10.9948 11.407 9.28384 11.5993C9.56259 11.8396 9.80289 12.301 9.80289 13.0219C9.80289 14.0504 9.79328 14.877 9.79328 15.1365C9.79328 15.3384 9.93746 15.5787 10.3219 15.5018C11.8485 14.9864 13.175 14.0054 14.1147 12.6966C15.0545 11.3879 15.5601 9.81737 15.5606 8.20618C15.5606 3.95762 12.1194 0.516479 7.87086 0.516479Z" fill="white"/>
</svg>
