<svg xmlns="http://www.w3.org/2000/svg" width="16" height="16" fill="none"><path fill="#fff" fill-rule="evenodd" d="M7.87.516a7.688 7.688 0 0 0-7.689 7.69 7.685 7.685 0 0 0 5.258 7.296c.384.067.529-.164.529-.366 0-.182-.01-.788-.01-1.432-1.932.356-2.432-.47-2.586-.903-.086-.221-.461-.904-.788-1.086-.269-.145-.653-.5-.01-.51.606-.01 1.039.558 1.183.788.692 1.163 1.797.837 2.24.635.067-.5.269-.837.49-1.029-1.711-.192-3.5-.855-3.5-3.797 0-.836.299-1.528.79-2.066-.078-.192-.347-.98.076-2.038 0 0 .644-.202 2.115.788a7.135 7.135 0 0 1 1.922-.26c.654 0 1.307.087 1.923.26 1.47-1 2.114-.788 2.114-.788.423 1.057.154 1.846.077 2.038.49.538.788 1.22.788 2.066 0 2.951-1.797 3.605-3.508 3.797.279.24.519.702.519 1.423 0 1.028-.01 1.855-.01 2.114 0 .202.144.443.529.366a7.702 7.702 0 0 0 5.239-7.296A7.688 7.688 0 0 0 7.87.516Z" clip-rule="evenodd"/></svg>