<svg xmlns="http://www.w3.org/2000/svg" width="16" height="16" fill="none"><path fill="#F7DF1E" d="M15.5.258H.5v15h15v-15Z"/><path fill="#000" d="M10.576 11.977c.302.493.695.856 1.39.856.585 0 .958-.292.958-.695 0-.484-.384-.655-1.026-.936l-.353-.151c-1.017-.434-1.693-.976-1.693-2.124 0-1.057.806-1.862 2.065-1.862.896 0 1.54.312 2.004 1.129l-1.097.704c-.242-.433-.503-.604-.907-.604-.413 0-.675.262-.675.604 0 .423.262.595.867.856l.352.151c1.198.514 1.874 1.038 1.874 2.215 0 1.269-.997 1.964-2.336 1.964-1.309 0-2.155-.624-2.568-1.441l1.145-.666Zm-4.98.122c.222.393.424.725.908.725.463 0 .755-.181.755-.886V7.146h1.41v4.811c0 1.46-.856 2.124-2.105 2.124-1.129 0-1.782-.584-2.115-1.287l1.148-.695Z"/></svg>