<svg xmlns="http://www.w3.org/2000/svg" width="7" height="16" fill="none"><path fill="#599636" d="m3.324.816.4.751c.09.14.188.262.302.376.337.333.65.688.94 1.063.678.89 1.135 1.88 1.462 2.949.196.653.302 1.323.31 2.001.033 2.026-.661 3.766-2.062 5.212-.228.23-.474.44-.736.63-.139 0-.204-.107-.261-.205a1.682 1.682 0 0 1-.205-.588 2.842 2.842 0 0 1-.065-.744v-.114C3.397 12.123 3.275.873 3.324.816Z"/><path fill="#6CAC48" d="M3.324.79C3.308.759 3.29.784 3.274.8a.755.755 0 0 1-.138.45c-.098.139-.229.245-.36.36-.726.628-1.298 1.388-1.756 2.238C.41 4.99.097 6.217.008 7.507c-.041.465.147 2.107.294 2.581.4 1.258 1.119 2.313 2.05 3.228.229.22.474.424.727.62.073 0 .081-.065.098-.114.032-.104.057-.21.074-.319l.164-1.225L3.324.791Z"/><path fill="#C2BFBF" d="M3.724 14.295c.017-.187.107-.343.205-.498a.516.516 0 0 1-.23-.213 1.52 1.52 0 0 1-.121-.269c-.114-.343-.139-.703-.172-1.054v-.212c-.04.033-.049.31-.049.351-.024.371-.073.74-.147 1.103-.024.148-.04.294-.131.425 0 .016 0 .033.008.057.147.433.187.874.212 1.324v.164c0 .196-.008.155.155.22.065.025.138.033.204.082.05 0 .057-.041.057-.074l-.024-.27v-.751c-.008-.131.016-.262.033-.384v-.001Z"/></svg>