<svg xmlns="http://www.w3.org/2000/svg" width="15" height="16" fill="none"><path fill="#8CC84B" d="M6.757.418a1.258 1.258 0 0 1 1.228 0c1.87 1.057 3.74 2.111 5.609 3.168.351.198.586.59.583.995v6.356c.002.421-.256.822-.627 1.016l-5.589 3.152c-.38.217-.874.2-1.241-.034-.56-.324-1.119-.646-1.677-.97-.115-.068-.243-.122-.324-.233.071-.096.199-.108.302-.15.234-.074.448-.193.662-.308.054-.037.12-.023.172.01.478.274.951.556 1.43.827.103.06.207-.02.294-.068 1.828-1.033 3.66-2.063 5.487-3.097a.182.182 0 0 0 .1-.178c.002-2.097 0-4.194 0-6.29a.196.196 0 0 0-.116-.197c-1.857-1.045-3.713-2.093-5.57-3.139a.193.193 0 0 0-.218 0c-1.857 1.046-3.713 2.095-5.57 3.14a.194.194 0 0 0-.117.195v6.29a.178.178 0 0 0 .1.177l1.488.84c.28.15.622.24.93.125a.705.705 0 0 0 .457-.663c.002-2.084-.001-4.17.002-6.253-.007-.093.08-.17.17-.16.239-.002.477-.004.715 0 .1-.002.168.098.156.19-.001 2.098.002 4.196-.002 6.294 0 .559-.229 1.167-.746 1.44-.637.33-1.424.26-2.054-.056-.545-.272-1.064-.593-1.6-.884a1.164 1.164 0 0 1-.626-1.016V4.58c-.004-.414.24-.812.603-1.007L6.757.418Z"/><path fill="#8CC84B" d="M8.382 4.82c.813-.051 1.683-.03 2.414.37.566.307.88.95.89 1.58-.016.085-.105.131-.186.126-.236 0-.471.003-.707-.002-.1.004-.158-.088-.17-.177-.068-.3-.233-.599-.516-.744-.435-.218-.939-.207-1.413-.202-.346.018-.718.048-1.012.252-.225.154-.293.465-.213.716.076.18.284.238.454.291.98.257 2.017.231 2.977.568.398.137.787.405.923.821.178.558.1 1.225-.297 1.673-.322.369-.79.57-1.258.678-.623.14-1.268.143-1.9.081-.595-.068-1.213-.224-1.672-.629-.392-.34-.583-.87-.564-1.383.004-.086.09-.147.173-.14.238-.002.475-.002.712 0 .095-.006.166.076.17.165.044.287.152.588.402.758.482.311 1.088.29 1.64.299.458-.02.972-.027 1.346-.33.197-.172.255-.46.202-.71-.058-.209-.277-.306-.466-.37-.966-.306-2.016-.195-2.973-.541-.389-.137-.764-.397-.914-.796-.208-.565-.113-1.264.326-1.697.428-.43 1.045-.597 1.632-.656Z"/></svg>