<svg xmlns="http://www.w3.org/2000/svg" width="16" height="16" fill="none"><path fill="#61DAFB" d="M8 9.597a1.322 1.322 0 1 0 0-2.645 1.322 1.322 0 0 0 0 2.645Z"/><path stroke="#61DAFB" stroke-width=".566" d="M8 10.984c3.919 0 7.096-1.213 7.096-2.71 0-1.496-3.177-2.709-7.096-2.709S.904 6.778.904 8.275c0 1.496 3.177 2.709 7.096 2.709Z"/><path stroke="#61DAFB" stroke-width=".566" d="M5.654 9.63c1.96 3.393 4.598 5.538 5.894 4.79 1.296-.748.758-4.106-1.202-7.5S5.748 1.381 4.452 2.13c-1.296.748-.758 4.105 1.202 7.5Z"/><path stroke="#61DAFB" stroke-width=".566" d="M5.654 6.92c-1.96 3.394-2.498 6.752-1.202 7.5 1.296.748 3.935-1.397 5.894-4.79 1.96-3.395 2.498-6.753 1.202-7.5-1.296-.749-3.935 1.396-5.894 4.79Z"/></svg>