<svg xmlns="http://www.w3.org/2000/svg" width="62" height="60" fill="none"><path fill="#fff" fill-rule="evenodd" d="M30.759 0C13.765 0 0 13.765 0 30.759c0 13.61 8.805 25.107 21.031 29.182 1.538.27 2.115-.653 2.115-1.46 0-.731-.038-3.154-.038-5.73-7.729 1.423-9.728-1.884-10.343-3.614-.346-.884-1.846-3.614-3.153-4.345-1.076-.576-2.614-1.999-.038-2.037 2.422-.039 4.152 2.23 4.729 3.152 2.768 4.653 7.19 3.346 8.958 2.538.27-2 1.077-3.345 1.961-4.114-6.844-.769-13.995-3.422-13.995-15.187 0-3.345 1.192-6.113 3.153-8.266-.308-.77-1.384-3.922.307-8.152 0 0 2.576-.807 8.459 3.153a28.545 28.545 0 0 1 7.69-1.038c2.614 0 5.229.346 7.69 1.038 5.882-3.998 8.458-3.152 8.458-3.152 1.692 4.229.615 7.382.308 8.15 1.96 2.154 3.152 4.884 3.152 8.267 0 11.804-7.19 14.418-14.033 15.187 1.115.961 2.076 2.807 2.076 5.69 0 4.114-.038 7.421-.038 8.46 0 .807.576 1.768 2.114 1.46A30.808 30.808 0 0 0 61.518 30.76C61.518 13.765 47.753 0 30.758 0Z" clip-rule="evenodd"/></svg>