<svg xmlns="http://www.w3.org/2000/svg" width="26" height="25" fill="none"><path fill="#fff" fill-rule="evenodd" d="M12.816 0C5.736 0 0 5.735 0 12.816c0 5.671 3.669 10.461 8.763 12.16.64.112.881-.273.881-.61 0-.304-.016-1.313-.016-2.386-3.22.593-4.053-.785-4.31-1.506-.143-.369-.768-1.506-1.313-1.81-.449-.24-1.09-.834-.016-.85 1.01-.015 1.73.93 1.97 1.314 1.154 1.939 2.996 1.394 3.733 1.058.112-.834.449-1.394.817-1.715-2.851-.32-5.831-1.425-5.831-6.328 0-1.393.497-2.547 1.314-3.444-.129-.32-.577-1.634.128-3.396 0 0 1.073-.337 3.524 1.313a11.892 11.892 0 0 1 3.204-.432c1.09 0 2.179.144 3.204.432 2.451-1.666 3.525-1.313 3.525-1.313.705 1.762.256 3.076.128 3.396.817.897 1.314 2.034 1.314 3.444 0 4.918-2.996 6.008-5.848 6.328.465.4.865 1.17.865 2.371 0 1.715-.016 3.092-.016 3.525 0 .336.24.737.881.608a12.836 12.836 0 0 0 8.731-12.159C25.632 5.736 19.897 0 12.816 0Z" clip-rule="evenodd"/></svg>