<svg xmlns="http://www.w3.org/2000/svg" width="26" height="25" fill="none"><path fill="#fff" d="M25.882 1.838v21.324A1.838 1.838 0 0 1 24.044 25H2.721a1.838 1.838 0 0 1-1.839-1.838V1.838A1.838 1.838 0 0 1 2.721 0h21.323a1.838 1.838 0 0 1 1.838 1.838ZM8.235 9.558H4.56v11.765h3.676V9.56Zm.331-4.043a2.118 2.118 0 0 0-2.103-2.133h-.066a2.132 2.132 0 1 0 0 4.265 2.118 2.118 0 0 0 2.17-2.066v-.066Zm13.64 8.662c0-3.537-2.25-4.912-4.485-4.912A4.192 4.192 0 0 0 14 11.162h-.103V9.559h-3.456v11.764h3.677v-6.257a2.441 2.441 0 0 1 2.205-2.632h.14c1.17 0 2.037.735 2.037 2.588v6.301h3.676l.03-7.146Z"/></svg>