<svg xmlns="http://www.w3.org/2000/svg" width="130" height="13" fill="none"><path fill="#fff" d="m2.461 11.107 7.828-.456.437-7.809L9.7 1.816l-.475 6.973L1.17.752l-.798.779 8.037 8.056-6.992.494 1.045 1.026ZM16.348 12V3.36h2.622c.092 0 .248.002.468.006.224.004.438.02.642.048.656.092 1.204.336 1.644.732.44.396.77.9.99 1.512.22.612.33 1.286.33 2.022 0 .736-.11 1.41-.33 2.022a3.655 3.655 0 0 1-.99 1.512c-.44.396-.988.64-1.644.732-.2.024-.414.04-.642.048a32.1 32.1 0 0 1-.468.006h-2.622Zm.912-.846h1.71c.164 0 .34-.004.528-.012.192-.012.356-.032.492-.06.504-.088.91-.292 1.218-.612.312-.32.54-.72.684-1.2a5.557 5.557 0 0 0 .216-1.59 5.58 5.58 0 0 0-.216-1.596 2.815 2.815 0 0 0-.684-1.2c-.312-.316-.718-.518-1.218-.606a3.156 3.156 0 0 0-.498-.054 8.436 8.436 0 0 0-.522-.018h-1.71v6.948Zm10.648 1.026c-.86 0-1.586-.19-2.178-.57a3.613 3.613 0 0 1-1.344-1.59c-.304-.676-.456-1.456-.456-2.34 0-.884.152-1.664.456-2.34a3.575 3.575 0 0 1 1.344-1.584c.592-.384 1.318-.576 2.178-.576.864 0 1.59.192 2.178.576.592.38 1.04.908 1.344 1.584.308.676.462 1.456.462 2.34 0 .884-.154 1.664-.462 2.34a3.613 3.613 0 0 1-1.344 1.59c-.588.38-1.314.57-2.178.57Zm0-.846c.676 0 1.24-.154 1.692-.462.452-.308.79-.736 1.014-1.284.228-.552.342-1.188.342-1.908s-.114-1.354-.342-1.902A2.783 2.783 0 0 0 29.6 4.494c-.452-.308-1.016-.464-1.692-.468-.676 0-1.238.154-1.686.462-.448.308-.786.738-1.014 1.29-.224.548-.338 1.182-.342 1.902-.004.72.106 1.354.33 1.902.228.544.568.972 1.02 1.284.452.308 1.016.464 1.692.468Zm6.677.666-2.496-8.64h.918l2.022 7.134 2.01-7.128.924-.006 2.022 7.134 2.01-7.134h.924L40.429 12h-.888L37.5 4.914 35.473 12h-.888Zm9.372 0V3.36h.888l4.758 7.08V3.36h.888V12h-.888l-4.758-7.086V12h-.888Zm8.335 0V3.36h.882v7.794h4.104V12h-4.986Zm9.273.18c-.86 0-1.586-.19-2.178-.57a3.613 3.613 0 0 1-1.344-1.59c-.304-.676-.456-1.456-.456-2.34 0-.884.152-1.664.456-2.34a3.575 3.575 0 0 1 1.344-1.584c.592-.384 1.318-.576 2.178-.576.864 0 1.59.192 2.178.576.592.38 1.04.908 1.344 1.584.308.676.462 1.456.462 2.34 0 .884-.154 1.664-.462 2.34a3.613 3.613 0 0 1-1.344 1.59c-.588.38-1.314.57-2.178.57Zm0-.846c.676 0 1.24-.154 1.692-.462.452-.308.79-.736 1.014-1.284.228-.552.342-1.188.342-1.908s-.114-1.354-.342-1.902a2.783 2.783 0 0 0-1.014-1.284c-.452-.308-1.016-.464-1.692-.468-.676 0-1.238.154-1.686.462-.448.308-.786.738-1.014 1.29-.224.548-.338 1.182-.342 1.902-.004.72.106 1.354.33 1.902.228.544.568.972 1.02 1.284.452.308 1.016.464 1.692.468Zm4.35.666 2.977-8.64h1.17L73.038 12h-.918l-2.826-8.148h.348L66.834 12h-.918Zm1.327-2.094v-.828h4.464v.828h-4.464ZM74.122 12V3.36h2.621c.092 0 .248.002.468.006.224.004.438.02.642.048.656.092 1.204.336 1.644.732.44.396.77.9.99 1.512.22.612.33 1.286.33 2.022 0 .736-.11 1.41-.33 2.022a3.655 3.655 0 0 1-.99 1.512c-.44.396-.988.64-1.644.732-.2.024-.414.04-.642.048a32.1 32.1 0 0 1-.468.006h-2.622Zm.911-.846h1.71c.164 0 .34-.004.528-.012.192-.012.356-.032.492-.06.504-.088.91-.292 1.218-.612.312-.32.54-.72.684-1.2a5.557 5.557 0 0 0 .216-1.59 5.58 5.58 0 0 0-.216-1.596 2.815 2.815 0 0 0-.684-1.2c-.312-.316-.718-.518-1.218-.606a3.156 3.156 0 0 0-.498-.054 8.436 8.436 0 0 0-.522-.018h-1.71v6.948Zm9.553.846V3.36h3.336c.084 0 .178.004.282.012.108.004.216.016.324.036.452.068.834.226 1.146.474.316.244.554.552.714.924.164.372.246.784.246 1.236 0 .652-.172 1.218-.516 1.698-.344.48-.836.782-1.476.906l-.306.072h-2.868V12h-.882Zm5.232 0-1.704-3.516.846-.324L90.832 12h-1.014Zm-4.35-4.122h2.43c.072 0 .156-.004.252-.012s.19-.022.282-.042c.296-.064.538-.186.726-.366a1.66 1.66 0 0 0 .426-.642c.096-.248.144-.506.144-.774s-.048-.526-.144-.774a1.651 1.651 0 0 0-.426-.648 1.474 1.474 0 0 0-.726-.366 1.648 1.648 0 0 0-.282-.036 3.083 3.083 0 0 0-.252-.012h-2.43v3.672ZM92.156 12V3.36h5.4v.846h-4.518v2.988h3.798v.846h-3.798v3.114h4.518V12h-5.4Zm9.528.18c-.604 0-1.148-.1-1.632-.3a3.16 3.16 0 0 1-1.194-.864 2.837 2.837 0 0 1-.612-1.326l.9-.15c.144.56.448 1 .912 1.32.464.316 1.018.474 1.662.474.424 0 .804-.066 1.14-.198.336-.136.6-.328.792-.576.192-.248.288-.542.288-.882 0-.224-.04-.414-.12-.57a1.151 1.151 0 0 0-.318-.396 1.961 1.961 0 0 0-.432-.258 3.409 3.409 0 0 0-.456-.174l-2.19-.654a3.987 3.987 0 0 1-.732-.288 2.578 2.578 0 0 1-.588-.426 1.825 1.825 0 0 1-.384-.588 2.007 2.007 0 0 1-.138-.768c0-.488.128-.91.384-1.266s.606-.63 1.05-.822c.444-.192.95-.286 1.518-.282.576 0 1.09.102 1.542.306.456.204.832.496 1.128.876.296.376.492.822.588 1.338l-.924.168a2.092 2.092 0 0 0-.414-.978 2.113 2.113 0 0 0-.828-.636 2.672 2.672 0 0 0-1.098-.234c-.388 0-.734.066-1.038.198-.3.128-.538.304-.714.528a1.21 1.21 0 0 0-.264.768c0 .292.08.526.24.702.164.176.364.314.6.414.24.1.472.182.696.246l1.692.498c.176.048.382.118.618.21.24.088.472.216.696.384.228.164.416.38.564.648.148.268.222.608.222 1.02 0 .4-.08.758-.24 1.074a2.208 2.208 0 0 1-.666.798c-.284.216-.618.38-1.002.492-.38.116-.796.174-1.248.174Zm7.766 0c-.66 0-1.244-.136-1.752-.408a2.992 2.992 0 0 1-1.188-1.152c-.288-.496-.432-1.076-.432-1.74V3.366l.888-.006v5.406c0 .448.076.836.228 1.164.152.324.35.592.594.804a2.622 2.622 0 0 0 1.662.612c.28 0 .566-.05.858-.15.292-.1.56-.254.804-.462.244-.212.442-.48.594-.804.152-.328.228-.716.228-1.164V3.36h.888v5.52c0 .664-.144 1.244-.432 1.74a3.035 3.035 0 0 1-1.194 1.152c-.504.272-1.086.408-1.746.408Zm5.054-.18V3.36h.81l3.396 7.266 3.378-7.266h.822v8.634h-.84V5.328L118.992 12h-.57l-3.072-6.672V12h-.846Zm10.09 0V3.36h5.4v.846h-4.518v2.988h3.798v.846h-3.798v3.114h4.518V12h-5.4Z"/></svg>