<svg xmlns="http://www.w3.org/2000/svg" width="125" height="50" fill="none"><path fill="#fff" d="M0 37.629V1.782C0 .788.78 0 1.765 0h7.331c.984 0 1.765.788 1.765 1.782v35.744c0 1.062.916 2.364 1.765 1.782L51.793 13.16c.916-.583 1.493-1.714 1.493-2.776V1.816c0-.994.781-1.782 1.765-1.782h6.992c.984 0 1.765.788 1.765 1.782v13.606c0 1.062-.577 2.159-1.493 2.81L18.43 47.944c-.34.205-.645.274-.985.274-.577 0-1.12-.274-1.493-.788l-4.31-6.512c-.577-.856-1.697-1.507-2.75-1.507H1.765A1.761 1.761 0 0 1 0 37.629Zm46.498-6.683c0-.72.272-1.063.713-1.063.204 0 .475.069.78.275l7.57 5.14c.848.583 1.459 1.714 1.459 2.776v10.144c0 .994-.78 1.782-1.765 1.782h-6.992a1.761 1.761 0 0 1-1.765-1.782V30.946ZM60.753 41.193c0-.994.781-1.782 1.765-1.782h49.757c.984 0 1.765-.789 1.765-1.782V12.406c0-.994-.781-1.782-1.765-1.782H76.434c-.713 0-1.052-.274-1.052-.72 0-.206.068-.48.271-.788l5.057-7.642C81.287.617 82.407 0 83.46 0h39.336c.985 0 1.765.788 1.765 1.782v35.846c0 .994-.78 1.783-1.765 1.783h-7.093c-1.052 0-2.206.65-2.749 1.473l-5.091 7.642c-.577.857-1.697 1.474-2.749 1.474H62.518a1.761 1.761 0 0 1-1.765-1.782v-7.025Z"/></svg>