<svg xmlns="http://www.w3.org/2000/svg" width="257" height="49" fill="none"><path fill="#fff" d="M6.295 18 .343.72h1.836l5.268 15.276L12.75.72h1.836L8.635 18h-2.34Zm10.332 0V.72h1.764V18h-1.764Zm5.362 0V.72h10.8v1.692h-9.036v5.976h7.596v1.692h-7.596v6.228h9.036V18h-10.8Zm17.395 0L34.392.72h1.836l4.044 14.268L44.292.732 46.14.72l4.044 14.268L54.204.72h1.848L51.072 18h-1.776l-4.08-14.172L41.16 18h-1.776Zm28.146 0V2.412h-6.036V.72H75.33v1.692h-6.036V18H67.53Zm9.724 0V.72h1.764v7.788h9.552V.72h1.752V18H88.57v-7.8h-9.552V18h-1.764Zm16.67 0V.72h1.764V18h-1.764Zm11.361.36c-1.208 0-2.296-.2-3.264-.6-.96-.408-1.756-.984-2.388-1.728-.623-.744-1.031-1.628-1.224-2.652l1.8-.3c.288 1.12.896 2 1.824 2.64.928.632 2.036.948 3.324.948.848 0 1.608-.132 2.28-.396.672-.272 1.2-.656 1.584-1.152.384-.496.576-1.084.576-1.764 0-.448-.08-.828-.24-1.14a2.302 2.302 0 0 0-.636-.792 3.922 3.922 0 0 0-.864-.516 6.817 6.817 0 0 0-.912-.348l-4.38-1.308a7.969 7.969 0 0 1-1.464-.576 5.156 5.156 0 0 1-1.176-.852 3.658 3.658 0 0 1-.767-1.176c-.184-.448-.276-.96-.276-1.536 0-.976.256-1.82.768-2.532.511-.712 1.211-1.26 2.099-1.644.888-.384 1.9-.572 3.036-.564 1.152 0 2.18.204 3.084.612a5.823 5.823 0 0 1 2.256 1.752c.592.752.984 1.644 1.176 2.676l-1.848.336c-.12-.752-.396-1.404-.828-1.956a4.227 4.227 0 0 0-1.656-1.272 5.344 5.344 0 0 0-2.196-.468c-.776 0-1.468.132-2.076.396-.6.256-1.076.608-1.428 1.056-.352.448-.528.96-.528 1.536 0 .584.16 1.052.48 1.404.328.352.728.628 1.2.828.48.2.944.364 1.392.492l3.384.996c.352.096.764.236 1.236.42.48.176.944.432 1.392.768.456.328.832.76 1.128 1.296.296.536.444 1.216.444 2.04 0 .8-.16 1.516-.48 2.148a4.416 4.416 0 0 1-1.332 1.596 6.091 6.091 0 0 1-2.004.984 8.517 8.517 0 0 1-2.496.348Zm13.594-.36V.72h6.672c.168 0 .356.008.564.024.216.008.432.032.648.072.904.136 1.668.452 2.292.948a4.582 4.582 0 0 1 1.428 1.848c.328.744.492 1.568.492 2.472 0 .896-.164 1.716-.492 2.46a4.776 4.776 0 0 1-1.44 1.86c-.624.488-1.384.8-2.28.936a8.913 8.913 0 0 1-1.212.096h-4.908V18h-1.764Zm1.764-8.244h4.86c.144 0 .312-.008.504-.024s.38-.044.564-.084c.592-.128 1.076-.372 1.452-.732.384-.36.668-.788.852-1.284a4.251 4.251 0 0 0 .288-1.548c0-.536-.096-1.052-.288-1.548a3.303 3.303 0 0 0-.852-1.296c-.376-.36-.86-.604-1.452-.732a3.296 3.296 0 0 0-.564-.072 6.165 6.165 0 0 0-.504-.024h-4.86v7.344ZM133.364 18V.72h6.672c.168 0 .356.008.564.024.216.008.432.032.648.072.904.136 1.668.452 2.292.948a4.582 4.582 0 0 1 1.428 1.848c.328.744.492 1.568.492 2.472 0 1.304-.344 2.436-1.032 3.396-.688.96-1.672 1.564-2.952 1.812l-.612.144h-5.736V18h-1.764Zm10.464 0-3.408-7.032 1.692-.648 3.744 7.68h-2.028Zm-8.7-8.244h4.86c.144 0 .312-.008.504-.024s.38-.044.564-.084c.592-.128 1.076-.372 1.452-.732.384-.36.668-.788.852-1.284a4.251 4.251 0 0 0 .288-1.548c0-.536-.096-1.052-.288-1.548a3.303 3.303 0 0 0-.852-1.296c-.376-.36-.86-.604-1.452-.732a3.296 3.296 0 0 0-.564-.072 6.165 6.165 0 0 0-.504-.024h-4.86v7.344ZM155.5 18.36c-1.72 0-3.172-.38-4.356-1.14-1.184-.768-2.08-1.828-2.688-3.18-.608-1.352-.912-2.912-.912-4.68 0-1.768.304-3.328.912-4.68.608-1.352 1.504-2.408 2.688-3.168C152.328.744 153.78.36 155.5.36c1.728 0 3.18.384 4.356 1.152 1.184.76 2.08 1.816 2.688 3.168.616 1.352.924 2.912.924 4.68 0 1.768-.308 3.328-.924 4.68-.608 1.352-1.504 2.412-2.688 3.18-1.176.76-2.628 1.14-4.356 1.14Zm0-1.692c1.352 0 2.48-.308 3.384-.924.904-.616 1.58-1.472 2.028-2.568.456-1.104.684-2.376.684-3.816s-.228-2.708-.684-3.804c-.448-1.096-1.124-1.952-2.028-2.568-.904-.616-2.032-.928-3.384-.936-1.352 0-2.476.308-3.372.924-.896.616-1.572 1.476-2.028 2.58-.448 1.096-.676 2.364-.684 3.804-.008 1.44.212 2.708.66 3.804.456 1.088 1.136 1.944 2.04 2.568.904.616 2.032.928 3.384.936Zm13.323 1.68c-1.152 0-2.14-.32-2.964-.96-.824-.64-1.38-1.496-1.668-2.568l1.764-.42c.144.632.476 1.168.996 1.608.528.432 1.148.648 1.86.648.448 0 .9-.108 1.356-.324.464-.216.828-.572 1.092-1.068a2.79 2.79 0 0 0 .3-1.116c.032-.408.048-.896.048-1.464V.72h1.776v11.964c0 .48-.004.916-.012 1.308a5.677 5.677 0 0 1-.132 1.116 3.57 3.57 0 0 1-.42 1.068c-.416.728-.976 1.272-1.68 1.632-.696.36-1.468.54-2.316.54Zm8.181-.348V.72h10.8v1.692h-9.036v5.976h7.596v1.692h-7.596v6.228h9.036V18h-10.8Zm20.074.36c-1.72 0-3.172-.38-4.356-1.14-1.184-.768-2.08-1.828-2.688-3.18-.608-1.352-.912-2.912-.912-4.68 0-1.768.304-3.328.912-4.68.608-1.352 1.504-2.408 2.688-3.168C193.906.744 195.358.36 197.078.36c2.008 0 3.648.516 4.92 1.548 1.272 1.024 2.144 2.4 2.616 4.128l-1.8.468c-.368-1.368-1.028-2.452-1.98-3.252-.952-.8-2.204-1.2-3.756-1.2-1.352 0-2.476.308-3.372.924-.896.616-1.572 1.476-2.028 2.58-.448 1.096-.68 2.364-.696 3.804-.008 1.44.212 2.708.66 3.804.456 1.096 1.136 1.956 2.04 2.58.912.616 2.044.924 3.396.924 1.552 0 2.804-.4 3.756-1.2.952-.808 1.612-1.892 1.98-3.252l1.8.468c-.472 1.728-1.344 3.108-2.616 4.14-1.272 1.024-2.912 1.536-4.92 1.536Zm14.78-.36V2.412h-6.036V.72h13.836v1.692h-6.036V18h-1.764Zm20.798.36c-1.72 0-3.172-.38-4.356-1.14-1.184-.768-2.08-1.828-2.688-3.18-.608-1.352-.912-2.912-.912-4.68 0-1.768.304-3.328.912-4.68.608-1.352 1.504-2.408 2.688-3.168C229.484.744 230.936.36 232.656.36c1.728 0 3.18.384 4.356 1.152 1.184.76 2.08 1.816 2.688 3.168.616 1.352.924 2.912.924 4.68 0 1.768-.308 3.328-.924 4.68-.608 1.352-1.504 2.412-2.688 3.18-1.176.76-2.628 1.14-4.356 1.14Zm0-1.692c1.352 0 2.48-.308 3.384-.924.904-.616 1.58-1.472 2.028-2.568.456-1.104.684-2.376.684-3.816s-.228-2.708-.684-3.804c-.448-1.096-1.124-1.952-2.028-2.568-.904-.616-2.032-.928-3.384-.936-1.352 0-2.476.308-3.372.924-.896.616-1.572 1.476-2.028 2.58-.448 1.096-.676 2.364-.684 3.804-.008 1.44.212 2.708.66 3.804.456 1.088 1.136 1.944 2.04 2.568.904.616 2.032.928 3.384.936ZM243.028 18V.72h1.776l9.516 14.16V.72h1.776V18h-1.776l-9.516-14.172V18h-1.776ZM76.116 48.36c-1.216 0-2.312-.212-3.288-.636a6.972 6.972 0 0 1-2.496-1.812c-.68-.784-1.2-1.728-1.56-2.832-.36-1.112-.54-2.352-.54-3.72 0-1.808.312-3.384.936-4.728.632-1.352 1.536-2.4 2.712-3.144 1.176-.744 2.588-1.116 4.236-1.116 1.84 0 3.336.432 4.488 1.296 1.16.856 1.968 2.008 2.424 3.456l-1.776.432c-.376-1.056-.996-1.9-1.86-2.532-.856-.632-1.924-.948-3.204-.948-1.352-.008-2.476.296-3.372.912-.896.608-1.572 1.464-2.028 2.568-.448 1.096-.676 2.364-.684 3.804-.008 1.44.212 2.708.66 3.804.456 1.088 1.136 1.944 2.04 2.568.904.616 2.032.928 3.384.936 1.24 0 2.264-.24 3.072-.72.808-.48 1.42-1.168 1.836-2.064.424-.896.664-1.956.72-3.18h-3.984v-1.512h5.832c.024.184.036.38.036.588.008.2.012.344.012.432 0 1.56-.28 2.956-.84 4.188a6.615 6.615 0 0 1-2.532 2.904c-1.12.704-2.528 1.056-4.224 1.056ZM86.354 48V30.72h1.764V48h-1.764Zm9.957 0V32.412h-6.036V30.72h13.836v1.692h-6.036V48h-1.764Zm9.724 0V30.72h1.764v7.788h9.552V30.72h1.752V48h-1.752v-7.8h-9.552V48h-1.764Zm23.174.36c-1.32 0-2.488-.272-3.504-.816a5.984 5.984 0 0 1-2.376-2.304c-.576-.992-.864-2.152-.864-3.48V30.732l1.776-.012v10.812c0 .896.152 1.672.456 2.328a4.79 4.79 0 0 0 1.188 1.608 5.057 5.057 0 0 0 1.62.924c.584.2 1.152.3 1.704.3.56 0 1.132-.1 1.716-.3a4.92 4.92 0 0 0 1.608-.924 4.79 4.79 0 0 0 1.188-1.608c.304-.656.456-1.432.456-2.328V30.72h1.776v11.04c0 1.328-.288 2.488-.864 3.48a6.07 6.07 0 0 1-2.388 2.304c-1.008.544-2.172.816-3.492.816Zm10.108-.36V30.72h6.672c.968 0 1.812.2 2.532.6.72.4 1.28.94 1.68 1.62.4.672.6 1.416.6 2.232 0 .928-.248 1.756-.744 2.484a3.848 3.848 0 0 1-1.992 1.5l-.024-.588c1.12.32 2 .88 2.64 1.68.64.8.96 1.768.96 2.904 0 1-.212 1.864-.636 2.592a4.289 4.289 0 0 1-1.788 1.668c-.768.392-1.66.588-2.676.588h-7.224Zm1.776-1.692h5.016c.704 0 1.336-.124 1.896-.372.56-.256 1-.616 1.32-1.08.328-.464.492-1.024.492-1.68a3.39 3.39 0 0 0-.444-1.728c-.296-.512-.7-.92-1.212-1.224-.504-.312-1.08-.468-1.728-.468h-5.34v6.552Zm0-8.22h4.884c.552 0 1.056-.124 1.512-.372a2.88 2.88 0 0 0 1.08-1.044c.272-.44.408-.948.408-1.524 0-.816-.284-1.48-.852-1.992-.56-.512-1.276-.768-2.148-.768h-4.884v5.7Zm18.299 8.784 10.176-10.176.6 8.832 1.32-1.32-.576-9.888-9.888-.552-1.32 1.32 8.856.6-10.176 10.176 1.008 1.008Z"/></svg>