<svg xmlns="http://www.w3.org/2000/svg" width="31" height="35" fill="none"><path fill="#264DE4" d="m30.388.211-2.769 31.011-12.443 3.45-12.409-3.445L.002.211h30.386Z"/><path fill="#2965F1" d="m25.25 29.248 2.365-26.5h-12.42v29.287l10.055-2.787Z"/><path fill="#EBEBEB" d="m6.341 14.251.341 3.804h8.513v-3.804H6.34ZM15.195 6.552H5.656l.346 3.804h9.193V6.552ZM15.195 28.088V24.13l-.017.004-4.236-1.144-.271-3.033H6.852l.533 5.972 7.792 2.164.018-.005Z"/><path fill="#fff" d="m19.866 18.055-.442 4.933-4.242 1.145v3.958l7.798-2.161.057-.643.894-10.015.093-1.021.687-7.7h-9.53v3.805h5.36l-.345 3.895h-5.014v3.804h4.684Z"/></svg>