<svg xmlns="http://www.w3.org/2000/svg" width="73" height="17" fill="none"><path fill="#fff" d="M5.55 12.227c-1.052 0-1.966-.233-2.74-.7-.766-.466-1.362-1.123-1.79-1.97-.426-.846-.64-1.84-.64-2.98 0-1.18.21-2.2.63-3.06.42-.86 1.01-1.523 1.77-1.99.768-.466 1.67-.7 2.71-.7 1.068 0 1.978.247 2.73.74.754.487 1.324 1.187 1.71 2.1.388.914.564 2.004.53 3.27h-1.5v-.52c-.026-1.4-.33-2.456-.91-3.17-.572-.713-1.412-1.07-2.52-1.07-1.16 0-2.05.377-2.67 1.13-.612.754-.92 1.827-.92 3.22 0 1.36.308 2.417.92 3.17.62.747 1.498 1.12 2.63 1.12.774 0 1.448-.176 2.02-.53.58-.36 1.038-.876 1.37-1.55l1.37.53c-.426.94-1.056 1.67-1.89 2.19-.826.514-1.762.77-2.81.77Zm-4.13-5.29v-1.23h8.25v1.23H1.42Zm9.67 4.99 4.22-5.46-4.13-5.34h1.76l3.23 4.21 3.2-4.21h1.76L17 6.467l4.23 5.46h-1.77l-3.29-4.33-3.31 4.33h-1.77Zm16.596.3c-.993 0-1.833-.25-2.52-.75-.686-.506-1.206-1.19-1.56-2.05-.353-.866-.53-1.836-.53-2.91 0-1.093.177-2.066.53-2.92.36-.86.887-1.536 1.58-2.03.694-.493 1.547-.74 2.56-.74.987 0 1.834.25 2.54.75.707.5 1.247 1.18 1.62 2.04.38.86.57 1.827.57 2.9 0 1.08-.19 2.05-.57 2.91-.38.86-.926 1.544-1.64 2.05-.713.5-1.573.75-2.58.75Zm-4.86 4.5v-15.6h1.32v8.13h.16v7.47h-1.48Zm4.71-5.87c.754 0 1.38-.19 1.88-.57.5-.38.874-.896 1.12-1.55.254-.66.38-1.4.38-2.22 0-.813-.123-1.546-.37-2.2-.246-.653-.623-1.17-1.13-1.55-.5-.38-1.136-.57-1.91-.57-.753 0-1.38.184-1.88.55-.493.367-.863.877-1.11 1.53-.246.647-.37 1.394-.37 2.24 0 .834.124 1.58.37 2.24.247.654.62 1.167 1.12 1.54.5.374 1.134.56 1.9.56Zm7.136 1.07v-10.8h1.32v2.6l-.26-.34c.12-.32.277-.613.47-.88a3.05 3.05 0 0 1 .63-.67c.28-.246.607-.433.98-.56.374-.133.75-.21 1.13-.23.38-.026.727 0 1.04.08v1.38a3.566 3.566 0 0 0-1.29-.07c-.466.054-.896.24-1.29.56-.36.28-.63.617-.81 1.01-.18.387-.3.8-.36 1.24-.06.434-.09.864-.09 1.29v5.39h-1.47Zm11.582.3c-1.053 0-1.967-.233-2.74-.7-.767-.466-1.363-1.123-1.79-1.97-.427-.846-.64-1.84-.64-2.98 0-1.18.21-2.2.63-3.06.42-.86 1.01-1.523 1.77-1.99.767-.466 1.67-.7 2.71-.7 1.067 0 1.977.247 2.73.74.753.487 1.323 1.187 1.71 2.1.387.914.563 2.004.53 3.27h-1.5v-.52c-.027-1.4-.33-2.456-.91-3.17-.573-.713-1.413-1.07-2.52-1.07-1.16 0-2.05.377-2.67 1.13-.613.754-.92 1.827-.92 3.22 0 1.36.307 2.417.92 3.17.62.747 1.497 1.12 2.63 1.12.773 0 1.447-.176 2.02-.53.58-.36 1.037-.876 1.37-1.55l1.37.53c-.427.94-1.057 1.67-1.89 2.19-.827.514-1.763.77-2.81.77Zm-4.13-5.29v-1.23h8.25v1.23h-8.25Zm15.29 5.28c-1.267 0-2.31-.273-3.13-.82-.814-.546-1.314-1.306-1.5-2.28l1.5-.25c.16.614.523 1.104 1.09 1.47.572.36 1.28.54 2.12.54.82 0 1.466-.17 1.94-.51.473-.346.71-.816.71-1.41 0-.333-.078-.603-.23-.81-.148-.213-.45-.41-.91-.59s-1.148-.393-2.06-.64c-.98-.266-1.748-.533-2.3-.8-.554-.266-.947-.573-1.18-.92-.234-.353-.35-.783-.35-1.29 0-.613.172-1.15.52-1.61.346-.466.826-.826 1.44-1.08.613-.26 1.326-.39 2.14-.39.813 0 1.54.134 2.18.4.646.26 1.166.627 1.56 1.1.392.474.626 1.024.7 1.65l-1.5.27a2.16 2.16 0 0 0-.95-1.5c-.528-.373-1.197-.566-2.01-.58-.768-.02-1.39.127-1.87.44-.48.307-.72.717-.72 1.23 0 .287.086.534.26.74.172.2.486.39.94.57.46.18 1.112.377 1.96.59.992.254 1.772.52 2.34.8.566.28.97.61 1.21.99s.36.85.36 1.41c0 1.02-.38 1.824-1.14 2.41-.754.58-1.794.87-3.12.87Zm10.507 0c-1.267 0-2.31-.273-3.13-.82-.813-.546-1.313-1.306-1.5-2.28l1.5-.25c.16.614.523 1.104 1.09 1.47.573.36 1.28.54 2.12.54.82 0 1.467-.17 1.94-.51.473-.346.71-.816.71-1.41 0-.333-.077-.603-.23-.81-.147-.213-.45-.41-.91-.59s-1.147-.393-2.06-.64c-.98-.266-1.747-.533-2.3-.8-.553-.266-.947-.573-1.18-.92-.233-.353-.35-.783-.35-1.29 0-.613.173-1.15.52-1.61.347-.466.827-.826 1.44-1.08.613-.26 1.327-.39 2.14-.39.813 0 1.54.134 2.18.4.647.26 1.167.627 1.56 1.1.393.474.627 1.024.7 1.65l-1.5.27a2.16 2.16 0 0 0-.95-1.5c-.527-.373-1.197-.566-2.01-.58-.767-.02-1.39.127-1.87.44-.48.307-.72.717-.72 1.23 0 .287.087.534.26.74.173.2.487.39.94.57.46.18 1.113.377 1.96.59.993.254 1.773.52 2.34.8s.97.61 1.21.99.36.85.36 1.41c0 1.02-.38 1.824-1.14 2.41-.753.58-1.793.87-3.12.87Z"/></svg>