<svg xmlns="http://www.w3.org/2000/svg" width="24" height="35" fill="none"><g clip-path="url(#a)"><path fill="#0ACF83" d="M6.3 34.672a5.745 5.745 0 0 0 5.743-5.744v-5.743H6.299a5.745 5.745 0 0 0-5.743 5.743 5.745 5.745 0 0 0 5.743 5.744Z"/><path fill="#A259FF" d="M.556 17.442a5.745 5.745 0 0 1 5.743-5.744h5.744v11.487H6.299a5.745 5.745 0 0 1-5.743-5.743Z"/><path fill="#F24E1E" d="M.556 5.955A5.745 5.745 0 0 1 6.299.21h5.744v11.487H6.299A5.745 5.745 0 0 1 .556 5.955Z"/><path fill="#FF7262" d="M12.043.211h5.743a5.745 5.745 0 0 1 5.743 5.744 5.745 5.745 0 0 1-5.743 5.743h-5.743V.211Z"/><path fill="#1ABCFE" d="M23.53 17.442a5.745 5.745 0 0 1-5.744 5.743 5.745 5.745 0 0 1-5.743-5.743 5.745 5.745 0 0 1 5.743-5.744 5.745 5.745 0 0 1 5.743 5.744Z"/></g><defs><clipPath id="a"><path fill="#fff" d="M.554.211h22.978v34.46H.554z"/></clipPath></defs></svg>