<svg xmlns="http://www.w3.org/2000/svg" width="37" height="35" fill="none"><path fill="#fff" fill-rule="evenodd" d="M18.485.211C8.725.211.819 8.117.819 17.877c0 7.817 5.057 14.42 12.079 16.76.883.155 1.214-.375 1.214-.838 0-.42-.022-1.811-.022-3.29-4.438.816-5.586-1.083-5.94-2.076-.199-.508-1.06-2.076-1.81-2.496-.619-.33-1.502-1.148-.023-1.17 1.392-.022 2.385 1.28 2.717 1.81 1.59 2.673 4.129 1.922 5.145 1.458.154-1.148.618-1.921 1.126-2.363-3.93-.441-8.038-1.965-8.038-8.722 0-1.921.684-3.511 1.81-4.748-.176-.441-.794-2.252.177-4.681 0 0 1.48-.464 4.858 1.81a16.393 16.393 0 0 1 4.417-.596c1.502 0 3.003.199 4.416.596 3.379-2.296 4.858-1.81 4.858-1.81.972 2.429.354 4.24.177 4.681 1.126 1.237 1.81 2.805 1.81 4.748 0 6.78-4.128 8.28-8.06 8.722.641.552 1.193 1.612 1.193 3.268 0 2.363-.022 4.262-.022 4.859 0 .463.331 1.015 1.215.839a17.694 17.694 0 0 0 12.035-16.76C36.15 8.116 28.245.21 18.485.21Z" clip-rule="evenodd"/></svg>