<svg xmlns="http://www.w3.org/2000/svg" width="35" height="35" fill="none"><path fill="#F7DF1E" d="M34.483.211H.023v34.461h34.46V.212Z"/><path fill="#000" d="M23.171 27.134c.694 1.133 1.598 1.966 3.195 1.966 1.341 0 2.199-.67 2.199-1.597 0-1.11-.881-1.504-2.358-2.15l-.81-.347c-2.336-.995-3.889-2.243-3.889-4.88 0-2.428 1.85-4.277 4.743-4.277 2.059 0 3.539.717 4.605 2.593l-2.521 1.62c-.555-.996-1.154-1.389-2.084-1.389-.949 0-1.55.602-1.55 1.388 0 .972.602 1.365 1.991 1.967l.81.347c2.751 1.18 4.305 2.382 4.305 5.087 0 2.915-2.29 4.512-5.366 4.512-3.008 0-4.95-1.433-5.901-3.311l2.631-1.53Zm-11.439.28c.509.903.972 1.666 2.084 1.666 1.064 0 1.735-.416 1.735-2.035v-11.01h3.238v11.054c0 3.353-1.966 4.88-4.835 4.88-2.593 0-4.094-1.343-4.858-2.959l2.636-1.596Z"/></svg>