<svg xmlns="http://www.w3.org/2000/svg" width="17" height="35" fill="none"><path fill="#599636" d="m8.319.306.92 1.727c.206.319.43.6.694.863a24.134 24.134 0 0 1 2.158 2.44c1.558 2.046 2.61 4.318 3.36 6.776.45 1.5.694 3.04.712 4.598.076 4.655-1.52 8.652-4.738 11.974a13.68 13.68 0 0 1-1.69 1.445c-.319 0-.47-.244-.601-.47a3.865 3.865 0 0 1-.47-1.35c-.113-.564-.187-1.127-.15-1.709v-.262c-.026-.056-.307-25.9-.195-26.032Z"/><path fill="#6CAC48" d="M8.319.249C8.28.173 8.244.23 8.206.267c.018.377-.113.713-.319 1.034-.226.318-.525.563-.826.826-1.669 1.445-2.983 3.19-4.035 5.142C1.626 9.897.905 12.713.7 15.677c-.093 1.07.339 4.843.676 5.931.92 2.89 2.571 5.312 4.71 7.414a20.59 20.59 0 0 0 1.67 1.427c.169 0 .187-.15.226-.263.074-.24.13-.484.169-.732l.377-2.815L8.318.25Z"/><path fill="#C2BFBF" d="M9.238 31.273c.038-.431.245-.789.47-1.145-.226-.094-.394-.28-.526-.488a3.48 3.48 0 0 1-.28-.619c-.262-.788-.318-1.615-.394-2.42v-.488c-.093.075-.113.712-.113.807a18.7 18.7 0 0 1-.338 2.534c-.056.338-.093.675-.301.975 0 .038 0 .076.018.132.338.995.43 2.008.488 3.04v.378c0 .45-.019.355.355.506.15.056.319.075.47.187.113 0 .131-.094.131-.169l-.056-.62v-1.726c-.018-.302.038-.601.075-.883l.001-.001Z"/></svg>