<svg xmlns="http://www.w3.org/2000/svg" width="33" height="35" fill="none"><path fill="#8CC84B" d="M14.958.58a2.89 2.89 0 0 1 2.82 0c4.296 2.426 8.592 4.85 12.887 7.278.807.455 1.348 1.353 1.34 2.284v14.601c.005.97-.588 1.89-1.44 2.335-4.281 2.413-8.56 4.83-12.84 7.243-.872.499-2.008.46-2.853-.08-1.283-.743-2.569-1.483-3.852-2.227-.262-.156-.558-.28-.743-.535.164-.22.456-.248.694-.344.536-.17 1.028-.444 1.52-.71.125-.085.276-.052.396.024 1.097.63 2.185 1.277 3.286 1.9.235.136.473-.044.674-.156 4.2-2.374 8.407-4.74 12.607-7.115a.417.417 0 0 0 .229-.41c.003-4.817 0-9.634.001-14.451a.452.452 0 0 0-.269-.45c-4.266-2.403-8.53-4.81-12.795-7.212a.444.444 0 0 0-.503-.001C11.852 4.958 7.59 7.366 3.325 9.769a.446.446 0 0 0-.27.448v14.451a.409.409 0 0 0 .231.406c1.138.645 2.278 1.286 3.417 1.93.642.345 1.43.55 2.136.285a1.62 1.62 0 0 0 1.05-1.522c.006-4.789-.003-9.578.004-14.366-.015-.213.186-.388.393-.368a71.848 71.848 0 0 1 1.641.001c.229-.005.386.224.357.438-.002 4.82.006 9.638-.003 14.457.001 1.284-.526 2.682-1.714 3.31-1.464.758-3.273.597-4.718-.13-1.252-.624-2.446-1.362-3.676-2.03-.854-.443-1.445-1.367-1.439-2.336v-14.6c-.009-.95.553-1.866 1.386-2.314L14.958.579Z"/><path fill="#8CC84B" d="M18.692 10.694c1.866-.12 3.865-.072 5.545.848 1.3.705 2.021 2.184 2.044 3.629-.036.195-.24.302-.426.289-.541 0-1.083.007-1.625-.004-.23.01-.363-.203-.392-.406-.156-.691-.533-1.376-1.183-1.71-1-.5-2.158-.474-3.247-.464-.795.042-1.65.111-2.324.579-.517.354-.674 1.069-.49 1.645.175.413.652.547 1.043.67 2.25.588 4.633.53 6.84 1.304.913.316 1.807.93 2.12 1.886.409 1.282.23 2.814-.682 3.843-.74.848-1.817 1.308-2.892 1.559-1.43.319-2.913.327-4.365.185-1.365-.155-2.785-.514-3.839-1.444-.901-.783-1.341-2.002-1.298-3.178.011-.199.209-.338.4-.321.545-.005 1.09-.006 1.635 0 .218-.015.38.173.391.379.1.658.348 1.35.922 1.74 1.11.715 2.5.666 3.77.686 1.05-.046 2.231-.06 3.09-.755.452-.397.586-1.06.464-1.63-.133-.483-.637-.707-1.07-.854-2.22-.702-4.63-.447-6.83-1.242-.893-.315-1.756-.912-2.1-1.83-.478-1.297-.259-2.903.749-3.898.983-.99 2.401-1.37 3.75-1.506Z"/></svg>